<svg id="visual" viewBox="0 0 900 600" width="900" height="600" xmlns="http://www.w3.org/2000/svg" xmlns:xlink="http://www.w3.org/1999/xlink" version="1.1"><rect x="0" y="0" width="900" height="600" fill="#FFFFFF"></rect><path d="M0 123L25 137.5C50 152 100 181 150 202.2C200 223.3 250 236.7 300 231.8C350 227 400 204 450 197.8C500 191.7 550 202.3 600 215.7C650 229 700 245 750 230.8C800 216.7 850 172.3 875 150.2L900 128L900 601L875 601C850 601 800 601 750 601C700 601 650 601 600 601C550 601 500 601 450 601C400 601 350 601 300 601C250 601 200 601 150 601C100 601 50 601 25 601L0 601Z" fill="#fa7268"></path><path d="M0 218L25 231.7C50 245.3 100 272.7 150 292.3C200 312 250 324 300 303.2C350 282.3 400 228.7 450 226.5C500 224.3 550 273.7 600 285.5C650 297.3 700 271.7 750 270.8C800 270 850 294 875 306L900 318L900 601L875 601C850 601 800 601 750 601C700 601 650 601 600 601C550 601 500 601 450 601C400 601 350 601 300 601C250 601 200 601 150 601C100 601 50 601 25 601L0 601Z" fill="#f16367"></path><path d="M0 369L25 367.7C50 366.3 100 363.7 150 352C200 340.3 250 319.7 300 316.7C350 313.7 400 328.3 450 323.8C500 319.3 550 295.7 600 304C650 312.3 700 352.7 750 357.8C800 363 850 333 875 318L900 303L900 601L875 601C850 601 800 601 750 601C700 601 650 601 600 601C550 601 500 601 450 601C400 601 350 601 300 601C250 601 200 601 150 601C100 601 50 601 25 601L0 601Z" fill="#e85467"></path><path d="M0 324L25 325.8C50 327.7 100 331.3 150 342.7C200 354 250 373 300 376.5C350 380 400 368 450 373.3C500 378.7 550 401.3 600 397.8C650 394.3 700 364.7 750 365.7C800 366.7 850 398.3 875 414.2L900 430L900 601L875 601C850 601 800 601 750 601C700 601 650 601 600 601C550 601 500 601 450 601C400 601 350 601 300 601C250 601 200 601 150 601C100 601 50 601 25 601L0 601Z" fill="#de4467"></path><path d="M0 482L25 483.2C50 484.3 100 486.7 150 478.5C200 470.3 250 451.7 300 438C350 424.3 400 415.7 450 426.2C500 436.7 550 466.3 600 479.3C650 492.3 700 488.7 750 473.5C800 458.3 850 431.7 875 418.3L900 405L900 601L875 601C850 601 800 601 750 601C700 601 650 601 600 601C550 601 500 601 450 601C400 601 350 601 300 601C250 601 200 601 150 601C100 601 50 601 25 601L0 601Z" fill="#d23467"></path><path d="M0 487L25 494.7C50 502.3 100 517.7 150 527.7C200 537.7 250 542.3 300 545.5C350 548.7 400 550.3 450 538C500 525.7 550 499.3 600 485.8C650 472.3 700 471.7 750 483C800 494.3 850 517.7 875 529.3L900 541L900 601L875 601C850 601 800 601 750 601C700 601 650 601 600 601C550 601 500 601 450 601C400 601 350 601 300 601C250 601 200 601 150 601C100 601 50 601 25 601L0 601Z" fill="#c62368"></path></svg>